:SAMPLES-PER-SECOND 30
:FULLY-SPECIFIED
:DEGREES
582
root  -4.91717 41.5584 0.605736 10.1753 -86.3481 -4.06323
RightUpLeg  1.83276 -2.44919 -2.30015
RightLeg  -8.78204 -20.69 5.19195
RightFoot  7.13165 -1.10221 7.07188
RightToes  -3.13588e-008 1.75238e-005 3.56266e-009
Spine  11.8241 -0.66278 -8.73444
Spine1  -26.413 -0.430713 13.3117
HEad  -1.36214 -1.13769 0.687842
LeftShoulder1  1.06474 -0.885842 -17.6109
LeftArm  -12.6202 -32.6197 -39.941
LeftForeArm  137.193 -76.595 -133.021
LeftHand  -0.922183 -5.42016 10.1951
RightShoulder  1.08232 1.10594 16.9002
RightArm  32.1982 -23.9169 18.3994
RightForeArm  113.601 77.4369 123.374
RightHand  -1.67751 11.1298 -12.122
LeftUpLeg  0.123978 1.8018 4.30896
LeftLeg  -6.57229 10.6366 -2.34108
LeftFoot  6.59889 1.05779 -6.95163
LeftToes  4.76812e-008 1.47286e-008 1.3089e-009
583
root  -5.00494 41.567 0.601675 8.42157 -85.7441 -2.27097
RightUpLeg  2.046 -2.53811 -2.37541
RightLeg  -8.88312 -21.1547 5.33062
RightFoot  7.0005 -1.09342 7.06064
RightToes  -3.13588e-008 1.75238e-005 3.56266e-009
Spine  11.3624 -0.468044 -7.88418
Spine1  -26.1667 -0.261369 11.9633
HEad  -2.1216 -1.21592 0.396025
LeftShoulder1  1.04522 -0.710344 -18.2025
LeftArm  -10.6624 -29.0388 -40.3862
LeftForeArm  144.081 -75.1478 -139.155
LeftHand  -0.93772 -5.64342 10.1626
RightShoulder  1.15121 1.29662 17.4495
RightArm  32.2259 -23.0557 18.3101
RightForeArm  109.592 78.0754 118.595
RightHand  -1.67135 10.8194 -12.3013
LeftUpLeg  0.0237065 1.87754 4.29751
LeftLeg  -6.39054 10.0747 -2.34161
LeftFoot  6.69486 1.07369 -7.01743
LeftToes  4.76812e-008 1.47286e-008 1.3089e-009
584
root  -5.07077 41.5175 0.580411 4.52588 -85.4746 1.45883
RightUpLeg  2.41164 -2.67839 -2.5388
RightLeg  -8.8944 -21.3716 5.33955
RightFoot  6.2444 -0.971555 6.55203
RightToes  -3.13588e-008 1.75238e-005 3.56266e-009
Spine  10.693 -0.0119851 -7.20078
Spine1  -25.0799 0.0704035 10.5407
HEad  -3.03347 -1.50748 0.0946887
LeftShoulder1  1.09209 -0.743158 -19.1722
LeftArm  -10.7106 -25.7613 -39.427
LeftForeArm  147.791 -73.9892 -142.821
LeftHand  -0.919069 -5.62112 9.98543
RightShoulder  1.25333 1.58277 18.1533
RightArm  31.4427 -21.5619 18.3245
RightForeArm  104.998 78.3355 115.349
RightHand  -1.72976 10.5181 -12.9408
LeftUpLeg  0.163273 1.82956 4.08588
LeftLeg  -6.09573 9.80451 -2.32287
LeftFoot  6.2233 1.05348 -7.0584
LeftToes  4.76812e-008 1.47286e-008 1.3089e-009
585
root  -5.12128 41.4344 0.546603 1.07321 -85.5247 4.66901
RightUpLeg  2.75145 -2.51089 -2.49092
RightLeg  -8.80221 -21.733 5.0298
RightFoot  5.1125 -0.869405 6.24865
RightToes  -3.13588e-008 1.75238e-005 3.56266e-009
Spine  10.3626 0.547778 -5.99357
Spine1  -24.3271 0.530465 8.29295
HEad  -3.52379 -1.90439 0.100315
LeftShoulder1  1.20494 -1.03779 -20.0647
LeftArm  -11.7543 -22.057 -37.4351
LeftForeArm  149.932 -72.8651 -145.658
LeftHand  -0.983515 -5.87596 10.4469
RightShoulder  1.45371 2.15744 19.2711
RightArm  30.0454 -19.7055 18.303
RightForeArm  100.953 78.5928 111.967
RightHand  -1.72188 10.4472 -12.9403
LeftUpLeg  0.401684 1.8725 3.91988
LeftLeg  -5.70601 9.72138 -2.36353
LeftFoot  5.36345 0.979224 -6.88689
LeftToes  4.76812e-008 1.47286e-008 1.3089e-009
586
root  -5.15309 41.3417 0.512277 -3.9678 -85.6436 9.51501
RightUpLeg  3.24433 -2.53747 -2.64602
RightLeg  -9.15805 -21.7324 5.02364
RightFoot  4.03238 -0.737941 5.66552
RightToes  -3.13588e-008 1.75238e-005 3.56266e-009
Spine  9.83822 1.20835 -4.95729
Spine1  -23.1873 1.09293 6.07161
HEad  -4.24987 -2.89434 -0.118892
LeftShoulder1  1.20822 -0.982059 -20.4999
LeftArm  -12.6217 -18.5833 -36.1985
LeftForeArm  151.762 -71.8829 -147.826
LeftHand  -0.881046 -5.52201 9.59149
RightShoulder  1.65387 2.69483 20.3678
RightArm  27.9919 -18.2891 18.0841
RightForeArm  98.2269 78.8092 109.077
RightHand  -1.6939 10.6699 -12.568
LeftUpLeg  0.605404 1.74802 3.55915
LeftLeg  -5.40061 9.99932 -2.35005
LeftFoot  4.58814 0.89178 -6.56803
LeftToes  4.76812e-008 1.47286e-008 1.3089e-009
587
root  -5.17091 41.2613 0.459189 -8.72974 -85.9345 14.142
RightUpLeg  3.53394 -2.45244 -2.66251
RightLeg  -9.42026 -21.7632 4.93144
RightFoot  3.1556 -0.59367 4.83354
RightToes  -3.13588e-008 1.75238e-005 3.56266e-009
Spine  9.3005 1.93209 -4.28483
Spine1  -21.9666 1.75054 4.55847
HEad  -5.09679 -3.33195 -0.314189
LeftShoulder1  1.14232 -0.649441 -21.0894
LeftArm  -13.3718 -15.3731 -34.7212
LeftForeArm  152.005 -70.7601 -149.783
LeftHand  -0.646934 -4.07572 8.14485
RightShoulder  1.88119 3.39906 20.9263
RightArm  26.0165 -16.4581 18.1679
RightForeArm  95.4289 78.9059 106.963
RightHand  -1.63365 10.5552 -12.223
LeftUpLeg  0.799809 1.74473 3.34588
LeftLeg  -5.20793 10.2801 -2.41337
LeftFoot  3.98258 0.805769 -6.16832
LeftToes  4.76812e-008 1.47286e-008 1.3089e-009
588
root  -5.16309 41.2066 0.386255 -10.4877 -86.1995 15.9483
RightUpLeg  3.26018 -2.20631 -2.40924
RightLeg  -9.02782 -21.9678 4.61164
RightFoot  2.40585 -0.493189 4.22756
RightToes  -3.13588e-008 1.75238e-005 3.56266e-009
Spine  8.94385 2.77235 -2.81195
Spine1  -21.1875 2.57598 2.07597
HEad  -5.78791 -4.4737 0.566459
LeftShoulder1  1.17283 -0.704498 -21.4836
LeftArm  -13.9044 -12.587 -32.8812
LeftForeArm  153.604 -69.8687 -151.375
LeftHand  -0.961316 -5.61962 10.4611
RightShoulder  2.25166 4.38604 22.3482
RightArm  24.5217 -14.7432 17.41
RightForeArm  91.2279 79.0745 103.208
RightHand  -1.67756 10.5326 -12.5535
LeftUpLeg  0.680644 1.77143 3.37909
LeftLeg  -4.96092 10.4637 -2.4054
LeftFoot  3.39469 0.770353 -6.11273
LeftToes  4.76812e-008 1.47286e-008 1.3089e-009
589
root  -5.17017 41.1637 0.29811 -10.4492 -86.1796 16.0189
RightUpLeg  3.12455 -1.96689 -2.16123
RightLeg  -8.96089 -22.3235 4.50988
RightFoot  1.886 -0.459434 4.07206
RightToes  -3.13588e-008 1.75238e-005 3.56266e-009
Spine  8.23766 3.66824 -1.58269
Spine1  -19.92 3.48313 -0.147958
HEad  -6.00362 -6.08551 1.08953
LeftShoulder1  1.09454 -0.448686 -21.2955
LeftArm  -14.0126 -10.2708 -31.8956
LeftForeArm  154.425 -69.0692 -152.608
LeftHand  -0.917574 -5.51653 10.0603
RightShoulder  2.41199 4.65255 23.3949
RightArm  23.527 -12.277 17.184
RightForeArm  86.0971 79.1882 98.967
RightHand  -1.63163 10.0927 -12.5614
LeftUpLeg  0.333386 1.7115 3.4104
LeftLeg  -4.44027 10.5989 -2.18648
LeftFoot  2.93818 0.732309 -5.98702
LeftToes  4.76812e-008 1.47286e-008 1.3089e-009
590
root  -5.15667 41.1418 0.189365 -12.0421 -85.8142 17.4952
RightUpLeg  3.23946 -1.96651 -2.14531
RightLeg  -8.85476 -22.6313 4.45306
RightFoot  1.41462 -0.433078 3.95743
RightToes  -3.13588e-008 1.75238e-005 3.56266e-009
Spine  8.11241 4.43535 -0.864809
Spine1  -19.0044 4.28222 -1.79144
HEad  -6.65509 -7.00523 1.43389
LeftShoulder1  1.14469 -0.573854 -21.7013
LeftArm  -14.5938 -7.95219 -30.3203
LeftForeArm  154.891 -68.3397 -153.626
LeftHand  -0.948459 -5.57412 10.3348
RightShoulder  2.80447 5.57169 24.8302
RightArm  22.252 -10.3222 16.3091
RightForeArm  81.0775 79.2226 95.1066
RightHand  -1.64783 9.36977 -13.2592
LeftUpLeg  0.322226 1.60116 3.30769
LeftLeg  -4.32958 10.5196 -2.07334
LeftFoot  2.84016 0.756758 -6.21892
LeftToes  4.76812e-008 1.47286e-008 1.3089e-009
591
root  -5.1352 41.1125 0.0530281 -11.285 -85.4472 16.5088
RightUpLeg  3.25095 -1.96262 -1.92938
RightLeg  -8.35253 -23.0263 4.35294
RightFoot  0.952804 -0.374424 3.53511
RightToes  -3.13588e-008 1.75238e-005 3.56266e-009
Spine  7.75936 5.45234 -0.192827
Spine1  -17.3109 5.3795 -3.17671
HEad  -7.98617 -8.92212 1.88879
LeftShoulder1  1.17961 -0.646326 -22.0737
LeftArm  -15.3889 -7.04584 -29.4634
LeftForeArm  154.487 -68.06 -153.925
LeftHand  -0.893229 -5.16558 10.1108
RightShoulder  2.97882 5.95218 25.4404
RightArm  20.8986 -8.17855 16.2921
RightForeArm  77.788 79.2479 92.0563
RightHand  -1.61154 9.51659 -12.864
LeftUpLeg  0.330218 1.75913 3.4946
LeftLeg  -4.03303 10.1094 -2.03646
LeftFoot  2.6143 0.730394 -6.09464
LeftToes  4.76812e-008 1.47286e-008 1.3089e-009
592
root  -5.11699 41.0882 -0.0609745 -8.93658 -85.1029 13.8725
RightUpLeg  3.34789 -1.88097 -1.59041
RightLeg  -7.94003 -23.4087 4.26653
RightFoot  0.784676 -0.301659 2.88911
RightToes  -3.13588e-008 1.75238e-005 3.56266e-009
Spine  8.03677 6.44588 1.20827
Spine1  -16.5232 6.49716 -5.25443
HEad  -9.09369 -10.4941 2.70079
LeftShoulder1  1.23488 -0.824825 -22.1875
LeftArm  -15.9279 -5.82101 -29.2735
LeftForeArm  153.936 -68.1191 -153.781
LeftHand  -0.914345 -5.21265 10.2964
RightShoulder  3.2492 6.59377 26.1493
RightArm  20.1039 -6.53887 16.1278
RightForeArm  77.4657 79.2393 91.9217
RightHand  -1.6521 10.1339 -12.6726
LeftUpLeg  0.312094 1.80456 3.73456
LeftLeg  -3.56009 9.81797 -1.80656
LeftFoot  2.2989 0.712183 -6.06891
LeftToes  4.76812e-008 1.47286e-008 1.3089e-009
